<svg xmlns="http://www.w3.org/2000/svg" width="320" height="180" viewBox="0 0 320 180">
  <g fill="none" fill-rule="evenodd">
    <path stroke="#FFFFFF" d="M6.5 170.5L84.50641 170.5M236.5 170.5L314.50641 170.5" stroke-linecap="square" opacity=".1"/>
    <path fill="#FFFFFF" d="M107.11 167.726562L107.11 167.054688 111.707656 167.054688 111.707656 167.726562 109.844375 167.726562 109.844375 173 108.965468 173 108.965468 167.726562 107.11 167.726562zM120.252656 167.054688L120.252656 169.660156 123.057343 169.660156 123.057343 167.054688 123.928437 167.054688 123.928437 173 123.057343 173 123.057343 170.332031 120.252656 170.332031 120.252656 173 119.381562 173 119.381562 167.054688 120.252656 167.054688zM135.325 171.496094L132.891406 171.496094 132.360156 173 131.438281 173 133.711719 166.992188 134.551562 166.992188 136.770312 173 135.828906 173 135.325 171.496094zM135.10625 170.847656L134.305469 168.46875 134.1375 167.914062 133.965625 168.46875 133.121875 170.847656 135.10625 170.847656zM143.768437 167.726562L143.768437 167.054688 148.366094 167.054688 148.366094 167.726562 146.502812 167.726562 146.502812 173 145.623906 173 145.623906 167.726562 143.768437 167.726562zM155.778281 168.886719C155.866823 168.792968 155.939088 168.641928 155.995078 168.433594 156.051068 168.225259 156.079062 168.022136 156.079062 167.824219 156.079062 167.688801 156.060833 167.558594 156.024375 167.433594 155.987916 167.308593 155.941693 167.201172 155.885703 167.111328 155.829713 167.021484 155.773073 166.959636 155.715781 166.925781L155.715781 166.6875 156.274375 166.230469C156.461876 166.321615 156.610312 166.471353 156.719687 166.679688 156.829063 166.888022 156.88375 167.161457 156.88375 167.5 156.88375 167.802085 156.844037 168.072264 156.764609 168.310547 156.685182 168.548829 156.590131 168.745442 156.479453 168.900391 156.368775 169.055339 156.260053 169.171875 156.153281 169.25L155.778281 169.011719 155.778281 168.886719zM164.690469 172.007812C164.849324 172.106771 165.058957 172.192057 165.319375 172.263672 165.579793 172.335287 165.837603 172.371094 166.092813 172.371094 166.478231 172.371094 166.771848 172.304688 166.973672 172.171875 167.175496 172.039062 167.276406 171.830731 167.276406 171.546875 167.276406 171.359374 167.227579 171.199219 167.129922 171.066406 167.032265 170.933593 166.897501 170.815105 166.725625 170.710938 166.553749 170.60677 166.298543 170.472657 165.96 170.308594 165.525102 170.097655 165.168335 169.845054 164.889688 169.550781 164.61104 169.256509 164.471719 168.912762 164.471719 168.519531 164.471719 168.160154 164.565468 167.866538 164.752969 167.638672 164.94047 167.410806 165.182655 167.246094 165.479531 167.144531 165.776408 167.042968 166.099321 166.992188 166.448281 166.992188 166.773804 166.992188 167.053749 167.022786 167.288125 167.083984 167.522501 167.145183 167.703489 167.217447 167.831094 167.300781L167.655313 167.988281C167.486041 167.886718 167.312866 167.809245 167.135781 167.755859 166.958697 167.702474 166.725626 167.675781 166.436563 167.675781 166.238645 167.675781 166.053751 167.701823 165.881875 167.753906 165.709999 167.80599 165.570678 167.886718 165.463906 167.996094 165.357135 168.105469 165.30375 168.240885 165.30375 168.402344 165.30375 168.592449 165.34151 168.75065 165.417031 168.876953 165.492552 169.003256 165.609088 169.11914 165.766641 169.224609 165.924194 169.330079 166.164426 169.466145 166.487344 169.632812 166.820679 169.804688 167.099973 169.966796 167.325234 170.119141 167.550496 170.271485 167.741249 170.458332 167.8975 170.679688 168.053751 170.901043 168.131875 171.156249 168.131875 171.445312 168.131875 171.802085 168.049194 172.101561 167.883828 172.34375 167.718463 172.585939 167.487345 172.766275 167.190469 172.884766 166.893592 173.003256 166.547242 173.0625 166.151406 173.0625 165.906613 173.0625 165.670288 173.044271 165.442422 173.007812 165.214556 172.971354 165.016642 172.927084 164.848672 172.875 164.680702 172.822916 164.558959 172.772136 164.483438 172.722656L164.690469 172.007812zM191.710156 167.054688L190.175 173.0625 189.323438 173.0625 188.190625 169.164062 188.057813 168.453125 187.921094 169.167969 186.772656 173.0625 186.026563 173.0625 184.389844 167.054688 185.284375 167.054688 186.229688 170.914062 186.428906 171.992188 186.624219 170.914062 187.745313 167.054688 188.374219 167.054688 189.510938 170.914062 189.76875 172 189.952344 170.917969 190.835156 167.054688 191.710156 167.054688zM200.095 167.054688L200.095 169.660156 202.899688 169.660156 202.899688 167.054688 203.770782 167.054688 203.770782 173 202.899688 173 202.899688 170.332031 200.095 170.332031 200.095 173 199.223907 173 199.223907 167.054688 200.095 167.054688zM214.124375 170.679688L214.124375 173 213.241563 173 213.241563 170.679688 211.284532 167.054688 212.214219 167.054688 213.534532 169.632812 213.7025 170.042969 213.843125 169.632812 215.136094 167.054688 216.050157 167.054688 214.124375 170.679688zM31.62 47.8C32.0520022 48.8560053 32.5799969 49.8159957 33.204 50.68 33.7320026 51.4000036 34.4039959 52.059997 35.22 52.66 36.0360041 53.260003 36.9959945 53.56 38.1 53.56 38.7240031 53.56 39.3599968 53.3440022 40.008 52.912 40.6560032 52.4799978 41.2319975 51.6520061 41.736 50.428 42.2400025 49.2039939 42.6599983 47.5120108 42.996 45.352 43.3320017 43.1919892 43.5 40.408017 43.5 37 43.5 33.4959825 43.3320017 30.640011 42.996 28.432 42.6599983 26.223989 42.2040029 24.5080061 41.628 23.284 41.0519971 22.0599939 40.368004 21.2200023 39.576 20.764 38.783996 20.3079977 37.9320046 20.08 37.02 20.08 36.2999964 20.08 35.6160032 20.2239986 34.968 20.512 34.3199968 20.8000014 33.7320026 21.1359981 33.204 21.52 32.6279971 21.9520022 32.1000024 22.4319974 31.62 22.96L31.62 47.8zM25.14 4.6C29.4600216 4.6 31.62 6.7599784 31.62 11.08L31.62 20.8C32.2440031 20.2719974 32.9879957 19.7920022 33.852 19.36 34.5720036 18.9759981 35.4479948 18.6400014 36.48 18.352 37.5120052 18.0639986 38.6519938 17.92 39.9 17.92 42.2520118 17.92 44.3999903 18.3279959 46.344 19.144 48.2880097 19.9600041 49.955993 21.1599921 51.348 22.744 52.740007 24.3280079 53.8199962 26.3079881 54.588 28.684 55.3560038 31.0600119 55.74 33.8319842 55.74 37 55.74 40.1680158 55.3560038 42.9399881 54.588 45.316 53.8199962 47.6920119 52.7760066 49.6719921 51.456 51.256 50.1359934 52.8400079 48.576009 54.0399959 46.776 54.856 44.975991 55.6720041 43.0440103 56.08 40.98 56.08 39.0599904 56.08 37.4400066 55.7440034 36.12 55.072 34.7999934 54.3999966 33.7320041 53.6560041 32.916 52.84 31.9559952 51.9279954 31.1640031 50.8480062 30.54 49.6 30.2039983 50.6560053 29.6280041 51.6159957 28.812 52.48 28.1399966 53.2000036 27.1560065 53.859997 25.86 54.46 24.5639935 55.060003 22.8840103 55.36 20.82 55.36L20.1 55.36 20.1 6.76 15.78 5.68 15.78 4.6 25.14 4.6zM73.74 37C75.3720082 37 76.8119938 36.9640004 78.06 36.892 79.3080062 36.8199996 80.3639957 36.7360005 81.228 36.64 82.236005 36.5439995 83.0999964 36.4240007 83.82 36.28 83.9160005 35.7999976 84.0359993 35.2720029 84.18 34.696 84.2760005 34.1679974 84.3599996 33.5800032 84.432 32.932 84.5040004 32.2839968 84.54 31.6000036 84.54 30.88 84.54 28.7199892 84.3720017 26.9080073 84.036 25.444 83.6999983 23.9799927 83.2800025 22.7920046 82.776 21.88 82.2719975 20.9679954 81.6960032 20.3200019 81.048 19.936 80.3999968 19.5519981 79.7640031 19.36 79.14 19.36 78.5159969 19.36 77.8800032 19.5879977 77.232 20.044 76.5839968 20.5000023 76.0080025 21.3639936 75.504 22.636 74.9999975 23.9080064 74.5800017 25.6959885 74.244 28 73.9079983 30.3040115 73.74 33.3039815 73.74 37zM80.94 56.08C74.7959693 56.08 70.020017 54.3880169 66.612 51.004 63.203983 47.6199831 61.5 42.9520298 61.5 37 61.5 34.0239851 61.9319957 31.3600118 62.796 29.008 63.6600043 26.6559882 64.8599923 24.6520083 66.396 22.996 67.9320077 21.3399917 69.7919891 20.0800043 71.976 19.216 74.1600109 18.3519957 76.547987 17.92 79.14 17.92 81.8280134 17.92 84.2399893 18.3039962 86.376 19.072 88.5120107 19.8400038 90.3239926 20.8719935 91.812 22.168 93.3000074 23.4640065 94.439996 24.9879912 95.232 26.74 96.024004 28.4920088 96.42 30.3519902 96.42 32.32 96.42 32.9920034 96.3840004 33.5799975 96.312 34.084 96.2399996 34.5880025 96.1560005 35.0319981 96.06 35.416 95.9159993 35.8960024 95.7960005 36.3039983 95.7 36.64 93.5879894 37.0720022 91.3560118 37.4319986 89.004 37.72 86.9879899 38.0080014 84.6600132 38.2599989 82.02 38.476 79.3799868 38.6920011 76.6200144 38.8 73.74 38.8 73.74 41.7760149 73.9559978 44.25999 74.388 46.252 74.8200022 48.24401 75.4199962 49.8279941 76.188 51.004 76.9560038 52.1800059 77.8679947 53.0199975 78.924 53.524 79.9800053 54.0280025 81.1319938 54.28 82.38 54.28 83.8200072 54.28 85.1759936 54.0160026 86.448 53.488 87.7200064 52.9599974 88.8239953 52.2520044 89.76 51.364 90.6960047 50.4759956 91.4399972 49.4680056 91.992 48.34 92.5440028 47.2119944 92.82 46.0720058 92.82 44.92L94.62 44.92C94.62 46.3600072 94.2960032 47.7519933 93.648 49.096 92.9999968 50.4400067 92.076006 51.6279948 90.876 52.66 89.675994 53.6920052 88.2360084 54.5199969 86.556 55.144 84.8759916 55.7680031 83.0040103 56.08 80.94 56.08zM122.7 19.36C121.451994 19.36 120.300005 19.6239974 119.244 20.152 118.187995 20.6800026 117.276004 21.6039934 116.508 22.924 115.739996 24.2440066 115.140002 26.0439886 114.708 28.324 114.275998 30.6040114 114.06 33.4959825 114.06 37 114.06 40.408017 114.275998 43.2279888 114.708 45.46 115.140002 47.6920112 115.739996 49.4559935 116.508 50.752 117.276004 52.0480065 118.187995 52.9599974 119.244 53.488 120.300005 54.0160026 121.451994 54.28 122.7 54.28 124.140007 54.28 125.495994 54.0160026 126.768 53.488 128.040006 52.9599974 129.143995 52.2520044 130.08 51.364 131.016005 50.4759956 131.759997 49.4680056 132.312 48.34 132.864003 47.2119944 133.14 46.0720058 133.14 44.92L134.94 44.92C134.94 46.3600072 134.616003 47.7519933 133.968 49.096 133.319997 50.4400067 132.396006 51.6279948 131.196 52.66 129.995994 53.6920052 128.556008 54.5199969 126.876 55.144 125.195992 55.7680031 123.32401 56.08 121.26 56.08 115.115969 56.08 110.340017 54.3880169 106.932 51.004 103.523983 47.6199831 101.82 42.9520298 101.82 37 101.82 31.0479702 103.523983 26.3800169 106.932 22.996 110.340017 19.6119831 115.115969 17.92 121.26 17.92 123.612012 17.92 125.627992 18.1479977 127.308 18.604 128.988008 19.0600023 130.367995 19.6599963 131.448 20.404 132.528005 21.1480037 133.319997 21.9879953 133.824 22.924 134.328003 23.8600047 134.58 24.831995 134.58 25.84 134.58 27.4720082 134.088005 28.7799951 133.104 29.764 132.119995 30.7480049 130.812008 31.24 129.18 31.24 128.795998 31.24 128.424002 31.2280001 128.064 31.204 127.703998 31.1799999 127.404001 31.1440002 127.164 31.096 126.827998 31.0479998 126.540001 30.9760005 126.3 30.88L126.3 20.08C126.011999 19.9839995 125.676002 19.8640007 125.292 19.72 124.955998 19.6239995 124.572002 19.5400004 124.14 19.468 123.707998 19.3959996 123.228003 19.36 122.7 19.36zM154.02 38.08C153.731999 38.7040031 153.492001 39.4239959 153.3 40.24 153.107999 40.9120034 152.940001 41.7039954 152.796 42.616 152.651999 43.5280046 152.58 44.5359945 152.58 45.64 152.58 48.5200144 153.023996 50.559994 153.912 51.76 154.800004 52.960006 155.795994 53.56 156.9 53.56 158.004006 53.56 158.951996 53.260003 159.744 52.66 160.536004 52.059997 161.195997 51.4000036 161.724 50.68 162.348003 49.8159957 162.899998 48.8560053 163.38 47.8L163.38 37.36C162.275994 37.36 161.172006 37.3959996 160.068 37.468 158.963994 37.5400004 157.956005 37.6239995 157.044 37.72 155.987995 37.8640007 154.980005 37.9839995 154.02 38.08zM156.9 17.92C159.780014 17.92 162.335989 18.3039962 164.568 19.072 166.800011 19.8400038 168.683992 20.9079932 170.22 22.276 171.756008 23.6440068 172.919996 25.2759905 173.712 27.172 174.504004 29.0680095 174.9 31.1439887 174.9 33.4L174.9 52.84 179.22 53.92 179.22 55 172.74 55C171.011991 55 169.620005 54.7240028 168.564 54.172 167.507995 53.6199972 166.668003 53.0080034 166.044 52.336 165.323996 51.5199959 164.796002 50.608005 164.46 49.6 163.835997 50.8480062 163.044005 51.9279954 162.084 52.84 161.267996 53.6560041 160.188007 54.3999966 158.844 55.072 157.499993 55.7440034 155.892009 56.08 154.02 56.08 151.763989 56.08 149.808008 55.8280025 148.152 55.324 146.495992 54.8199975 145.116006 54.1240044 144.012 53.236 142.907994 52.3479956 142.080003 51.3160059 141.528 50.14 140.975997 48.9639941 140.7 47.7040067 140.7 46.36 140.7 45.2559945 140.819999 44.2360047 141.06 43.3 141.300001 42.3639953 141.587998 41.5360036 141.924 40.816 142.308002 39.9519957 142.739998 39.1600036 143.22 38.44 145.23601 37.9599976 147.371989 37.5280019 149.628 37.144 151.54801 36.8079983 153.707988 36.4840016 156.108 36.172 158.508012 35.8599984 160.931988 35.6560005 163.38 35.56L163.38 33.4C163.38 30.6159861 163.200002 28.3120091 162.84 26.488 162.479998 24.6639909 161.964003 23.2240053 161.292 22.168 160.619997 21.1119947 159.792005 20.380002 158.808 19.972 157.823995 19.563998 156.708006 19.36 155.46 19.36 154.931997 19.36 154.452002 19.3959996 154.02 19.468 153.587998 19.5400004 153.204002 19.6239995 152.868 19.72 152.483998 19.8640007 152.148001 19.9839995 151.86 20.08L151.86 30.88C151.523998 30.9760005 151.212001 31.0479998 150.924 31.096 150.635999 31.1440002 150.336002 31.1799999 150.024 31.204 149.711998 31.2280001 149.364002 31.24 148.98 31.24 147.347992 31.24 146.040005 30.7480049 145.056 29.764 144.071995 28.7799951 143.58 27.4720082 143.58 25.84 143.58 24.831995 143.831997 23.8600047 144.336 22.924 144.840003 21.9879953 145.631995 21.1480037 146.712 20.404 147.792005 19.6599963 149.171992 19.0600023 150.852 18.604 152.532008 18.1479977 154.547988 17.92 156.9 17.92zM191.82 19C196.140022 19 198.3 21.1599784 198.3 25.48L198.3 44.2C198.3 45.8320082 198.467998 47.2359941 198.804 48.412 199.140002 49.5880059 199.559997 50.5599962 200.064 51.328 200.568003 52.0960038 201.143997 52.6599982 201.792 53.02 202.440003 53.3800018 203.075997 53.56 203.7 53.56 204.804006 53.56 205.751996 53.260003 206.544 52.66 207.336004 52.059997 207.995997 51.4000036 208.524 50.68 209.148003 49.8159957 209.699998 48.8560053 210.18 47.8L210.18 21.16 205.86 20.08 205.86 19 226.02 19 226.02 20.08 221.7 21.16 221.7 55.36 220.98 55.36C218.867989 55.36 217.176006 55.060003 215.904 54.46 214.631994 53.859997 213.660003 53.2000036 212.988 52.48 212.171996 51.6159957 211.596002 50.6560053 211.26 49.6 210.635997 50.8480062 209.844005 51.9279954 208.884 52.84 208.067996 53.6560041 206.988007 54.3999966 205.644 55.072 204.299993 55.7440034 202.692009 56.08 200.82 56.08 198.75599 56.08 196.860009 55.7440034 195.132 55.072 193.403991 54.3999966 191.928006 53.5120055 190.704 52.408 189.479994 51.3039945 188.520003 50.0440071 187.824 48.628 187.127997 47.2119929 186.78 45.7360077 186.78 44.2L186.78 21.16 182.46 20.08 182.46 19 191.82 19zM247.26 56.08C245.531991 56.08 244.008007 55.8880019 242.688 55.504 241.367993 55.1199981 240.228005 54.6640026 239.268 54.136 238.163994 53.5599971 237.228004 52.8880038 236.46 52.12 236.075998 52.6480026 235.656002 53.1279978 235.2 53.56 234.743998 53.9920022 234.324002 54.3279988 233.94 54.568 233.459998 54.9040017 232.980002 55.167999 232.5 55.36L230.7 55.36 230.7 43.12 233.58 43.12C234.252003 45.2320106 235.163994 47.1039918 236.316 48.736 237.276005 50.128007 238.523992 51.3999942 240.06 52.552 241.596008 53.7040058 243.515988 54.28 245.82 54.28 247.83601 54.28 249.359995 53.776005 250.392 52.768 251.424005 51.759995 251.94 50.3440091 251.94 48.52 251.94 47.1759933 251.424005 46.0240048 250.392 45.064 249.359995 44.1039952 248.076008 43.1920043 246.54 42.328 245.003992 41.4639957 243.324009 40.5880044 241.5 39.7 239.675991 38.8119956 237.996008 37.8160055 236.46 36.712 234.923992 35.6079945 233.640005 34.3360072 232.608 32.896 231.575995 31.4559928 231.06 29.7040103 231.06 27.64 231.06 26.2959933 231.335997 25.0360059 231.888 23.86 232.440003 22.6839941 233.327994 21.6520044 234.552 20.764 235.776006 19.8759956 237.34799 19.1800025 239.268 18.676 241.18801 18.1719975 243.491987 17.92 246.18 17.92 247.620007 17.92 248.939994 18.123998 250.14 18.532 251.340006 18.940002 252.371996 19.4079974 253.236 19.936 254.244005 20.5120029 255.155996 21.1599964 255.972 21.88 256.356002 21.3519974 256.775998 20.884002 257.232 20.476 257.688002 20.067998 258.107998 19.7200014 258.492 19.432 258.972002 19.1439986 259.451998 18.8800012 259.932 18.64L261.732 18.64 261.732 30.88 258.852 30.88C258.131996 28.8159897 257.244005 26.9680082 256.188 25.336 255.275995 23.943993 254.124007 22.6600059 252.732 21.484 251.339993 20.3079941 249.63601 19.72 247.62 19.72 246.371994 19.72 245.280005 20.1999952 244.344 21.16 243.407995 22.1200048 242.94 23.3199928 242.94 24.76 242.94 26.2000072 243.455995 27.4479947 244.488 28.504 245.520005 29.5600053 246.803992 30.5439954 248.34 31.456 249.876008 32.3680046 251.555991 33.2559957 253.38 34.12 255.204009 34.9840043 256.883992 35.9559946 258.42 37.036 259.956008 38.1160054 261.239995 39.3399932 262.272 40.708 263.304005 42.0760068 263.82 43.7199904 263.82 45.64 263.82 47.1760077 263.532003 48.5799936 262.956 49.852 262.379997 51.1240064 261.444006 52.2279953 260.148 53.164 258.851994 54.1000047 257.148011 54.8199975 255.036 55.324 252.923989 55.8280025 250.332015 56.08 247.26 56.08zM281.46 37C283.092008 37 284.531994 36.9640004 285.78 36.892 287.028006 36.8199996 288.083996 36.7360005 288.948 36.64 289.956005 36.5439995 290.819996 36.4240007 291.54 36.28 291.636 35.7999976 291.755999 35.2720029 291.9 34.696 291.996 34.1679974 292.08 33.5800032 292.152 32.932 292.224 32.2839968 292.26 31.6000036 292.26 30.88 292.26 28.7199892 292.092002 26.9080073 291.756 25.444 291.419998 23.9799927 291.000003 22.7920046 290.496 21.88 289.991997 20.9679954 289.416003 20.3200019 288.768 19.936 288.119997 19.5519981 287.484003 19.36 286.86 19.36 286.235997 19.36 285.600003 19.5879977 284.952 20.044 284.303997 20.5000023 283.728003 21.3639936 283.224 22.636 282.719997 23.9080064 282.300002 25.6959885 281.964 28 281.627998 30.3040115 281.46 33.3039815 281.46 37zM288.66 56.08C282.515969 56.08 277.740017 54.3880169 274.332 51.004 270.923983 47.6199831 269.22 42.9520298 269.22 37 269.22 34.0239851 269.651996 31.3600118 270.516 29.008 271.380004 26.6559882 272.579992 24.6520083 274.116 22.996 275.652008 21.3399917 277.511989 20.0800043 279.696 19.216 281.880011 18.3519957 284.267987 17.92 286.86 17.92 289.548013 17.92 291.959989 18.3039962 294.096 19.072 296.232011 19.8400038 298.043993 20.8719935 299.532 22.168 301.020007 23.4640065 302.159996 24.9879912 302.952 26.74 303.744004 28.4920088 304.14 30.3519902 304.14 32.32 304.14 32.9920034 304.104 33.5799975 304.032 34.084 303.96 34.5880025 303.876 35.0319981 303.78 35.416 303.635999 35.8960024 303.516 36.3039983 303.42 36.64 301.307989 37.0720022 299.076012 37.4319986 296.724 37.72 294.70799 38.0080014 292.380013 38.2599989 289.74 38.476 287.099987 38.6920011 284.340014 38.8 281.46 38.8 281.46 41.7760149 281.675998 44.25999 282.108 46.252 282.540002 48.24401 283.139996 49.8279941 283.908 51.004 284.676004 52.1800059 285.587995 53.0199975 286.644 53.524 287.700005 54.0280025 288.851994 54.28 290.1 54.28 291.540007 54.28 292.895994 54.0160026 294.168 53.488 295.440006 52.9599974 296.543995 52.2520044 297.48 51.364 298.416005 50.4759956 299.159997 49.4680056 299.712 48.34 300.264003 47.2119944 300.54 46.0720058 300.54 44.92L302.34 44.92C302.34 46.3600072 302.016003 47.7519933 301.368 49.096 300.719997 50.4400067 299.796006 51.6279948 298.596 52.66 297.395994 53.6920052 295.956008 54.5199969 294.276 55.144 292.595992 55.7680031 290.72401 56.08 288.66 56.08zM8.04 91.24L8.04 89.44 13.08 89.44 13.08 85.84C13.08 83.9679906 13.4279965 82.2160082 14.124 80.584 14.8200035 78.9519918 15.8159935 77.536006 17.112 76.336 18.4080065 75.135994 19.9919906 74.2000034 21.864 73.528 23.7360094 72.8559966 25.8479882 72.52 28.2 72.52 30.1680098 72.52 31.8959926 72.7479977 33.384 73.204 34.8720074 73.6600023 36.1079951 74.2599963 37.092 75.004 38.0760049 75.7480037 38.8199975 76.5879953 39.324 77.524 39.8280025 78.4600047 40.08 79.431995 40.08 80.44 40.08 82.0720082 39.5880049 83.3799951 38.604 84.364 37.6199951 85.3480049 36.3120082 85.84 34.68 85.84 34.2959981 85.84 33.9240018 85.8280001 33.564 85.804 33.2039982 85.7799999 32.9040012 85.7440002 32.664 85.696 32.3279983 85.6479998 32.0400012 85.5760005 31.8 85.48L31.8 74.32C31.607999 74.2719998 31.3920012 74.2240002 31.152 74.176 30.9119988 74.1279998 30.6600013 74.0800002 30.396 74.032 30.1319987 73.9839998 29.8800012 73.96 29.64 73.96 28.9199964 73.96 28.2480031 74.1279983 27.624 74.464 26.9999969 74.8000017 26.4720022 75.3999957 26.04 76.264 25.6079978 77.1280043 25.2600013 78.3279923 24.996 79.864 24.7319987 81.4000077 24.6 83.3919878 24.6 85.84L24.6 89.44 36.12 89.44 36.12 91.24 24.6 91.24 24.6 121.84 28.92 122.92 28.92 124 8.76 124 8.76 122.92 13.08 121.84 13.08 91.24 8.04 91.24zM48 88C52.3200216 88 54.48 90.1599784 54.48 94.48L54.48 113.2C54.48 114.832008 54.6479983 116.235994 54.984 117.412 55.3200017 118.588006 55.7399975 119.559996 56.244 120.328 56.7480025 121.096004 57.3239968 121.659998 57.972 122.02 58.6200032 122.380002 59.2559969 122.56 59.88 122.56 60.9840055 122.56 61.931996 122.260003 62.724 121.66 63.516004 121.059997 64.1759974 120.400004 64.704 119.68 65.3280031 118.815996 65.8799976 117.856005 66.36 116.8L66.36 90.16 62.04 89.08 62.04 88 82.2 88 82.2 89.08 77.88 90.16 77.88 124.36 77.16 124.36C75.0479894 124.36 73.3560064 124.060003 72.084 123.46 70.8119936 122.859997 69.8400034 122.200004 69.168 121.48 68.3519959 120.615996 67.7760017 119.656005 67.44 118.6 66.8159969 119.848006 66.0240048 120.927995 65.064 121.84 64.2479959 122.656004 63.1680067 123.399997 61.824 124.072 60.4799933 124.744003 58.8720094 125.08 57 125.08 54.9359897 125.08 53.0400086 124.744003 51.312 124.072 49.5839914 123.399997 48.1080061 122.512006 46.884 121.408 45.6599939 120.303994 44.7000035 119.044007 44.004 117.628 43.3079965 116.211993 42.96 114.736008 42.96 113.2L42.96 90.16 38.64 89.08 38.64 88 48 88zM107.4 88.36C106.151994 88.36 105.000005 88.6239974 103.944 89.152 102.887995 89.6800026 101.976004 90.6039934 101.208 91.924 100.439996 93.2440066 99.8400022 95.0439886 99.408 97.324 98.9759978 99.6040114 98.76 102.495982 98.76 106 98.76 109.408017 98.9759978 112.227989 99.408 114.46 99.8400022 116.692011 100.439996 118.455994 101.208 119.752 101.976004 121.048006 102.887995 121.959997 103.944 122.488 105.000005 123.016003 106.151994 123.28 107.4 123.28 108.840007 123.28 110.195994 123.016003 111.468 122.488 112.740006 121.959997 113.843995 121.252004 114.78 120.364 115.716005 119.475996 116.459997 118.468006 117.012 117.34 117.564003 116.211994 117.84 115.072006 117.84 113.92L119.64 113.92C119.64 115.360007 119.316003 116.751993 118.668 118.096 118.019997 119.440007 117.096006 120.627995 115.896 121.66 114.695994 122.692005 113.256008 123.519997 111.576 124.144 109.895992 124.768003 108.02401 125.08 105.96 125.08 99.8159693 125.08 95.040017 123.388017 91.632 120.004 88.223983 116.619983 86.52 111.95203 86.52 106 86.52 100.04797 88.223983 95.3800169 91.632 91.996 95.040017 88.6119831 99.8159693 86.92 105.96 86.92 108.312012 86.92 110.327992 87.1479977 112.008 87.604 113.688008 88.0600023 115.067995 88.6599963 116.148 89.404 117.228005 90.1480037 118.019997 90.9879953 118.524 91.924 119.028003 92.8600047 119.28 93.831995 119.28 94.84 119.28 96.4720082 118.788005 97.7799951 117.804 98.764 116.819995 99.7480049 115.512008 100.24 113.88 100.24 113.495998 100.24 113.124002 100.228 112.764 100.204 112.403998 100.18 112.104001 100.144 111.864 100.096 111.527998 100.048 111.240001 99.9760005 111 99.88L111 89.08C110.711999 88.9839995 110.376002 88.8640007 109.992 88.72 109.655998 88.6239995 109.272002 88.5400004 108.84 88.468 108.407998 88.3959996 107.928003 88.36 107.4 88.36zM134.04 73.6C138.360022 73.6 140.52 75.7599784 140.52 80.08L140.52 105.28 153.84 91.24 148.44 89.08 148.44 88 162.12 88 162.12 89.08 156.36 91.24 148.08 99.88 162.12 121.84 165.72 122.92 165.72 124 156.36 124C155.111994 124 154.008005 123.856001 153.048 123.568 152.087995 123.279999 151.224004 122.860003 150.456 122.308 149.687996 121.755997 149.004003 121.108004 148.404 120.364 147.803997 119.619996 147.216003 118.792005 146.64 117.88L140.52 108.16 140.52 121.84 144.84 122.92 144.84 124 124.68 124 124.68 122.92 129 121.84 129 75.76 124.68 74.68 124.68 73.6 134.04 73.6zM219 91.24L213.6 89.08 213.6 88 226.92 88 226.92 89.08 221.16 91.24 206.76 128.32C205.223992 132.30402 203.580009 135.159991 201.828 136.888 200.075991 138.616009 198.120011 139.48 195.96 139.48 193.799989 139.48 192.120006 138.904006 190.92 137.752 189.719994 136.599994 189.12 135.01601 189.12 133 189.12 131.175991 189.611995 129.760005 190.596 128.752 191.580005 127.743995 192.887992 127.24 194.52 127.24 194.904002 127.24 195.251998 127.264 195.564 127.312 195.876002 127.36 196.175999 127.408 196.464 127.456 196.752001 127.504 197.063998 127.552 197.4 127.6L197.4 137.32C198.024003 137.224 198.635997 137.008002 199.236 136.672 199.836003 136.335998 200.423997 135.820003 201 135.124 201.576003 134.427997 202.151997 133.528006 202.728 132.424 203.304003 131.319994 203.927997 129.952008 204.6 128.32L206.04 124.72 187.32 90.16 183.72 89.08 183.72 88 192.72 88C194.064007 88 195.239995 88.1559984 196.248 88.468 197.256005 88.7800016 198.131996 89.1999974 198.876 89.728 199.620004 90.2560026 200.279997 90.8919963 200.856 91.636 201.432003 92.3800037 201.959998 93.2079954 202.44 94.12L211.44 110.752 219 91.24zM246 123.64C246.816004 123.64 247.631996 123.376003 248.448 122.848 249.264004 122.319997 249.995997 121.396007 250.644 120.076 251.292003 118.755993 251.819998 116.956011 252.228 114.676 252.636002 112.395989 252.84 109.504018 252.84 106 252.84 102.495982 252.636002 99.6040114 252.228 97.324 251.819998 95.0439886 251.292003 93.2440066 250.644 91.924 249.995997 90.6039934 249.264004 89.6800026 248.448 89.152 247.631996 88.6239974 246.816004 88.36 246 88.36 245.183996 88.36 244.368004 88.6239974 243.552 89.152 242.735996 89.6800026 242.004003 90.6039934 241.356 91.924 240.707997 93.2440066 240.180002 95.0439886 239.772 97.324 239.363998 99.6040114 239.16 102.495982 239.16 106 239.16 109.504018 239.363998 112.395989 239.772 114.676 240.180002 116.956011 240.707997 118.755993 241.356 120.076 242.004003 121.396007 242.735996 122.319997 243.552 122.848 244.368004 123.376003 245.183996 123.64 246 123.64zM246 86.92C248.976015 86.92 251.639988 87.3519957 253.992 88.216 256.344012 89.0800043 258.347992 90.3399917 260.004 91.996 261.660008 93.6520083 262.919996 95.6559882 263.784 98.008 264.648004 100.360012 265.08 103.023985 265.08 106 265.08 108.976015 264.648004 111.639988 263.784 113.992 262.919996 116.344012 261.660008 118.347992 260.004 120.004 258.347992 121.660008 256.344012 122.919996 253.992 123.784 251.639988 124.648004 248.976015 125.08 246 125.08 243.023985 125.08 240.360012 124.648004 238.008 123.784 235.655988 122.919996 233.652008 121.660008 231.996 120.004 230.339992 118.347992 229.080004 116.344012 228.216 113.992 227.351996 111.639988 226.92 108.976015 226.92 106 226.92 103.023985 227.351996 100.360012 228.216 98.008 229.080004 95.6559882 230.339992 93.6520083 231.996 91.996 233.652008 90.3399917 235.655988 89.0800043 238.008 88.216 240.360012 87.3519957 243.023985 86.92 246 86.92zM279.12 88C283.440022 88 285.6 90.1599784 285.6 94.48L285.6 113.2C285.6 114.832008 285.767998 116.235994 286.104 117.412 286.440002 118.588006 286.859997 119.559996 287.364 120.328 287.868003 121.096004 288.443997 121.659998 289.092 122.02 289.740003 122.380002 290.375997 122.56 291 122.56 292.104006 122.56 293.051996 122.260003 293.844 121.66 294.636004 121.059997 295.295997 120.400004 295.824 119.68 296.448003 118.815996 296.999998 117.856005 297.48 116.8L297.48 90.16 293.16 89.08 293.16 88 313.32 88 313.32 89.08 309 90.16 309 124.36 308.28 124.36C306.167989 124.36 304.476006 124.060003 303.204 123.46 301.931994 122.859997 300.960003 122.200004 300.288 121.48 299.471996 120.615996 298.896002 119.656005 298.56 118.6 297.935997 119.848006 297.144005 120.927995 296.184 121.84 295.367996 122.656004 294.288007 123.399997 292.944 124.072 291.599993 124.744003 289.992009 125.08 288.12 125.08 286.05599 125.08 284.160009 124.744003 282.432 124.072 280.703991 123.399997 279.228006 122.512006 278.004 121.408 276.779994 120.303994 275.820003 119.044007 275.124 117.628 274.427997 116.211993 274.08 114.736008 274.08 113.2L274.08 90.16 269.76 89.08 269.76 88 279.12 88z"/>
  </g>
</svg>
